<mxfile host="app.diagrams.net" modified="2023-09-12T21:51:12.310Z" agent="Mozilla/5.0 (Windows NT 10.0; Win64; x64) AppleWebKit/537.36 (KHTML, like Gecko) Chrome/111.0.0.0 Safari/537.36 Edg/111.0.100.0" version="21.7.2" etag="EsG7Q9AOKPDNiVpbcV9m" type="github">
  <diagram name="Seite-1" id="4FXdI-9vkEdL-3yHbmjH">
    <mxGraphModel>
      <root>
        <mxCell id="0" />
        <mxCell id="1" parent="0" />
      </root>
    </mxGraphModel>
  </diagram>
</mxfile>
